<?xml version="1.0" encoding="UTF-8"?>
<svg id="Layer_2" data-name="Layer 2" xmlns="http://www.w3.org/2000/svg" viewBox="0 0 101.74 115.52">
  <defs>
    <style>
      .cls-1 {
        fill: #000;
        stroke-width: 0px;
      }
    </style>
  </defs>
  <g id="Layer_1-2" data-name="Layer 1">
    <path class="cls-1" d="M90.27,93.61c.83.36,2.41,1.06,4.75,2.11.12.06.24.16.34.3,1.4,2.05,3.43,4.99,6.09,8.82.26.37.4.83.13,1.27-.21.36-.34.57-.4.61-.14.12-.52.3-1.15.57-3.56,1.5-7.48,2.78-11.77,3.86-5.1,1.28-10.4,2.27-15.7,2.93-1.02.13-2.6.32-4.73.56-.57.07-1.14.05-1.66.14-.53.08-1.19.14-1.99.18-1.51.07-3,.29-4.56.3-.39,0-.83.02-1.32.07-1.16.11-2.16.1-3.25.15-.76.04-1.4.05-1.91.05-2.02.01-4.78.01-8.29,0-.91,0-1.77-.08-2.66-.08-1.14,0-2.25-.16-3.54-.19-.95-.02-1.82-.06-2.59-.14-.89-.09-1.58-.14-2.05-.16-.59-.02-1.15-.07-1.66-.14-.88-.12-1.66-.11-2.55-.24-.37-.05-.93-.12-1.64-.18-.82-.08-1.43-.17-2-.24-7.52-.94-15.03-2.43-22.26-4.74-1.07-.34-2.16-.73-3.24-1.15-.26-.1-.42-.22-.52-.5-.14-.43-.23-.75-.04-1.16.16-.34.34-.68.52-1.02,2.23-4.09,3.62-6.64,4.16-7.68.3-.55.68-.97,1.16-1.25.04-.02.05-.05.03-.09-.01-.02-.08-.21-.22-.59-.28-.74-.27-1.6-.19-2.38.32-3,1.56-5.57,3.42-7.86,1.31-1.61,2.06-2.36,3.73-4.04.52-.53,1.23-1.3,1.28-2.08.06-.86-.11-1.69-.52-2.51-.98-2.03-2.53-3.18-4.4-4.58-.52-.39-1.02-.61-1.77-1.01-3.48-1.88-5.46-5.74-5.71-9.62-.05-.82-.07-1.69-.04-2.6.04-.98.12-1.83.28-2.54.48-2.2,1.41-4.2,2.8-6.01.55-.72,1.34-1.48,1.96-2.22.52-.59.84-.98,1.02-1.57.39-1.3-2.48-2.67-3.36-3.19-2.18-1.28-3.44-3.16-3.76-5.64-.05-.43-.07-1.07-.05-1.95.02-.73.11-1.38.24-1.93,1.07-4.39,4.26-7.59,8.44-9.16,1.68-.64,2.82-1.07,3.41-1.28,2.36-.86,5.07-2.28,6.55-4.29.83-1.13,1.08-2.16,1.43-3.76.41-1.89,1.01-3.66,1.78-5.31.8-1.7,1.99-3.26,3.34-4.61,1.83-1.83,3.91-3.16,6.25-3.98,1.39-.5,2.92-.84,4.59-1.02.36-.04.82-.06,1.34-.06.73,0,1.2-.02,1.79.06,2.66.33,5.09,1.34,7.27,3.03.18.15.34.03.55-.12,2.76-2.04,5.8-3.25,9.11-3.64,1.84-.21,3.75-.07,5.7.45,3.35.89,6.3,2.66,8.62,5.28,1.99,2.23,3.36,4.66,3.98,7.64.3,1.42.57,2.8.82,4.13.44,2.28,1.21,4.45,2.68,6.31.91,1.14,1.91,2.16,3.03,3.09,2.73,2.27,3.77,3.04,5.4,4.61,2.36,2.29,4,5.36,4.56,8.64.1.57.13,1.13.19,1.87.03.36.03.71,0,1.06-.05.48-.07.94-.14,1.41-.33,2.44-1.02,4.74-2.05,6.9-.96,2.03-2.41,4.01-3.94,5.66-3.14,3.39-5.77,7-4.88,11.89.34,1.84,1.3,3.6,2.4,5.23,1.54,2.28,3.89,5.05,5.02,6.46,1.05,1.32,2.12,2.86,2.81,4.41,1.25,2.82,1.06,5.56-.56,8.23-.07.11-.04.18.07.23h0ZM52,28.29c.09-.3.18-.57.3-.79.02-.05.02-.09,0-.14-1.1-2.17-1.05-4.52-1.96-6.89-.6-1.56-1.73-2.5-3.39-2.83-.28-.05-.58-.06-.9-.02-.41.07-.78,0-1.16,0-.76.04-1.64.15-2.64.34-.6.11-.96.31-1.52.64-2.58,1.52-4.25,3.69-5,6.51-.11.43-.28,1.05-.5,1.84-.02.07.01.11.09.09,1.66-.23,3.45.6,4.73,1.57.18.14.4.38.64.72.07.09.18.18.32.27.98.59,1.86,1.25,2.59,2.14.8.98,1.34,2.12,1.64,3.39.02.08.07.11.14.07.6-.3,1.29-.48,2.05-.54.36-.02.62.06.98.14.08.02.13-.01.14-.1.34-2.23,1.38-4.02,3.11-5.39.03-.02.13-.09.3-.2.09-.05.12-.14.1-.25-.02-.16-.09-.38-.03-.59h-.01ZM54.81,30.31c-.41-.29-.62-.45-.66-.48-.14-.09-.25-.11-.36-.06-1.82.93-3.02,2.39-3.57,4.36-.22.79-.3,1.49-.24,2.1.18,1.71.82,3.15,1.93,4.3,1.15,1.2,2.76,1.91,4.43,2.04.79.06,1.75-.09,2.46-.33,1.92-.66,3.3-1.91,4.11-3.77.72-1.63.69-3.71-.03-5.36-.09-.2-.2-.27-.41-.28-2.77-.23-5.42-.9-7.66-2.52h0ZM43.88,36.95c0-.89-.18-1.75-.52-2.57-.34-.82-.82-1.55-1.46-2.18-.62-.62-1.36-1.11-2.18-1.45-.82-.34-1.68-.51-2.57-.51s-1.75.16-2.57.51c-.83.34-1.55.83-2.18,1.45-.64.64-1.12,1.36-1.46,2.18-.34.82-.52,1.68-.52,2.57s.18,1.75.52,2.57c.34.82.82,1.55,1.46,2.18.62.63,1.35,1.11,2.18,1.46.82.34,1.68.5,2.57.5s1.75-.16,2.57-.5c.82-.35,1.55-.83,2.18-1.46.64-.64,1.12-1.36,1.46-2.18.34-.83.52-1.69.52-2.57ZM30.11,32.63c.04-.05.07-.09.09-.11.05-.04.04-.06-.01-.07-.03-.01-.05-.01-.09,0-.55.24-1.17.46-1.86.66-.05.02-.08.05-.08.1-.04.5-.1,1.04-.2,1.59-.06.31-.03.64-.05,1.02,0,.08.04.12.12.12l.75-.02c.1-.01.16-.06.18-.16.17-1.14.56-2.18,1.14-3.14h0ZM64.48,33.09l.02.07c.03.15.11.21.27.18.29-.06.6-.16.93-.27.04-.02.07-.03.08-.05.02-.02.04-.05.06-.08.02-.02.02-.05,0-.07-.01-.02-.03-.04-.06-.04l-1.12.03c-.14,0-.2.08-.18.23h0ZM49.23,51.01c-.2.73-1.1.45-1.62.2-.8-.38-1.5-.8-2.1-1.28-.68-.54-1.12-1.16-1.14-2.04,0-.46.02-.87.07-1.23.08-.56.14-.96.16-1.2.05-.59.1-1.05.16-1.39.12-.6.11-1.28.22-1.87.09-.47.14-.93.18-1.4.05-.67.24-1.27.27-1.95.02-.45.11-.99.27-1.64.04-.16.04-.26,0-.3-.11-.16-.18-.16-.2.03-.05.33-.12.77-.2,1.32-.34,2.1-1.34,3.84-3.02,5.18-.56.45-1.1.78-1.62,1-2.41,1.07-4.78,1.05-7.11-.07-2.64-1.27-4.4-3.81-4.65-6.73,0-.12-.07-.17-.18-.17l-.75.02c-.11,0-.16.06-.16.17-.02,1.82-.02,2.87.01,3.14.07.75.06,1.5.15,2.18.13,1.06.23,1.8.3,2.23.51,3.38,1.43,6.61,2.77,9.68,2.78,6.4,7.8,12.47,15,13.84.5.09.87.12,1.49.16.69.05,1.27.02,2.04-.03.32-.02.61-.05.89-.11,9.08-1.62,14.25-10.89,16.04-19.11.34-1.59.56-2.88.65-3.88.09-.96.16-1.57.18-1.82.09-.8.13-1.41.13-1.81v-2.41c.01-1.1-.22-2.52-.28-3.66-.03-.49-.16-1-.21-1.52-.02-.14-.09-.18-.22-.14l-1.7.52c-.05.01-.08.05-.08.12.07,1.11-.04,2.19-.35,3.24-.25.84-.61,1.61-1.1,2.29-1.33,1.86-3.12,3-5.38,3.43-.84.16-1.7.17-2.54.05-3.36-.52-5.98-2.8-6.88-6.09-.09-.36-.18-.8-.26-1.33-.02-.11-.08-.17-.18-.2l-.88-.19c-.1-.03-.16.01-.17.11-.3,1.95-.5,3.86-.78,5.88-.09.66-.12,1.33-.2,1.97-.14.98-.2,2.18-.34,3.04-.13.75.07,1.13.66,1.57.58.42,1.23.8,1.94,1.11.55.25.9.46.73,1.11h0ZM68.59,46.69c-.04.39-.13.8-.2,1.29-.02.11.02.19.14.23.79.27,1.36.32,2.14.05,2.69-.94,4.41-3.81,4.96-6.52.06-.29.09-.62.11-1.01.02-.48.02-.82,0-1.02-.07-.87-.34-1.62-.81-2.26-.89-1.21-2.44-1.28-3.69-.64-.89.46-1.61,1.05-2.16,1.77-.07.09-.1.2-.1.34,0,.39,0,1.73,0,4.03,0,.34-.12,1.58-.38,3.75h0ZM26.5,44.01c-.14.57-.73.9-1.23.43-.36-.34-.72-.61-1.07-.82-.04-.02-.08-.02-.11,0-.04.02-.06.07-.05.11.18,1.14.57,2.05,1.6,2.7.55.34.77,1.33-.16,1.34-.34,0-.66-.11-1-.34-1.12-.8-1.66-2.1-1.8-3.46-.02-.19.05-.37.07-.54.01-.08-.02-.12-.11-.12-.38,0-.91.02-.98-.46-.08-.45.1-.84.57-.94.68-.16,1.27-.16,1.75,0,.64.2,1.3.63,2,1.29.14.14.25.26.31.38.14.24.2.21.17-.07-.02-.18-.05-.73-.09-1.66-.01-.39-.05-.74-.09-1.03-.03-.18-.08-.3-.16-.36-1.66-1.28-4.61-1.84-5.39.79-.27.92-.34,1.83-.2,2.72.61,3.9,3.59,6.91,7.41,7.85.07.01.12.01.18,0,.09-.02.11-.07.09-.16-.2-.59-.38-1.13-.5-1.61-.38-1.45-.7-3-.98-4.63-.02-.16-.05-.34-.06-.55-.01-.25,0-.63-.12-.86-.02-.05-.04-.05-.05,0h0ZM41.62,77.79c.05.11.15.12.25.16,1.38.54,2.8.94,4.27,1.21.38.07.86.14,1.48.2,1.12.11,1.99.25,3,.16,1.07-.09,1.95-.19,2.64-.3,2.2-.36,4.18-1.16,6-2.4.08-.05.11-.12.1-.22-.1-1.04-.16-1.82-.16-2.32-.01-.8-.05-1.58-.14-2.34-.09-.86-.14-1.8-.16-2.86-.01-.8-.14-1.53-.19-2.35,0-.05-.03-.08-.07-.1-.05-.02-.09-.02-.12.01-2.3,1.91-4.94,3.12-7.9,3.62-.18.04-.89.09-2.16.16-.29.02-.55.02-.8-.01-.68-.09-1.32-.08-2-.21-1.54-.3-2.91-.73-4.12-1.34-.04-.02-.09-.01-.13.02-.04.03-.06.07-.06.13l.23,8.52c0,.09.02.18.04.24h0Z"/>
    <path class="cls-1" d="M58.49,35.77c0,.3-.05.59-.16.86-.12.27-.28.52-.5.73-.2.21-.45.38-.73.5-.28.11-.57.16-.86.16s-.59-.05-.86-.16c-.27-.12-.52-.28-.73-.5-.21-.2-.37-.45-.48-.73-.11-.27-.18-.56-.18-.86s.06-.59.18-.86c.11-.28.27-.52.48-.73.21-.21.45-.37.73-.48.28-.11.57-.18.86-.18s.58.06.86.18c.27.11.52.27.73.48.21.21.38.45.5.73.11.27.16.56.16.86Z"/>
    <path class="cls-1" d="M40.77,36.58c0,.31-.06.61-.18.89-.11.28-.29.54-.5.75-.22.22-.47.39-.76.5-.28.12-.58.18-.89.18s-.61-.06-.89-.18c-.28-.11-.53-.28-.75-.5-.21-.22-.39-.48-.5-.75-.12-.29-.18-.59-.18-.89s.06-.61.18-.89c.11-.29.29-.54.5-.76.22-.21.47-.38.75-.5.29-.12.59-.18.89-.18s.61.06.89.18c.29.12.54.29.76.5.21.22.39.48.5.76.12.28.18.58.18.89Z"/>
    <path class="cls-1" d="M71.88,41.03c-.06-.04-.1-.02-.13.04-.05.1-.28.54-.68,1.3-.18.34-.45.46-.82.34-1-.34.04-2.02.42-2.51.61-.8,1.62-1.77,2.62-1.92.82-.12,1.11.98.42,1.33-.1.05-.27.12-.52.21-.14.05-.16.14-.1.26.78,1.44.36,3.23-.61,4.48-.25.31-.59.71-.96.73-.82.04-.94-.84-.48-1.3.5-.5.82-1.07.98-1.72.07-.32.2-1-.12-1.23h0Z"/>
    <path class="cls-1" d="M43.95,57.13c1.31.93,3.15,1.54,4.86,1.56.66,0,1.12,0,1.39-.03.81-.09,1.66-.29,2.57-.59.33-.11.96-.16,1.12.26.22.59.02,1-.63,1.22-.84.29-1.58.48-2.25.58-.7.11-1.32.07-2.27.07-.69,0-1.25-.04-1.7-.12-1.79-.34-3.37-1.07-4.77-2.2-.25-.2-.67-.71-.5-1.02.59-1.12,1.43-.23,2.14.27h0Z"/>
  </g>
</svg>